<svg xmlns="http://www.w3.org/2000/svg" fill="none" viewBox="0 0 197 20">
  <g clip-path="url(#ilVwyheNOZa)" fill="#000">
    <path fill-rule="evenodd" clip-rule="evenodd" d="M81.286 4.728a6.407 6.407 0 00-1.608 1.988 6.233 6.233 0 00-.73 2.445 6.51 6.51 0 00.26 2.53c.247.815.656 1.58 1.212 2.247a6.58 6.58 0 001.979 1.605 6.71 6.71 0 002.436.729 6.76 6.76 0 002.535-.26 6.734 6.734 0 002.25-1.21l.594-.53v3.53l-.198.136c-1.397.79-3.005 1.26-4.662 1.26h-.47a9.248 9.248 0 01-6.368-3 9.274 9.274 0 01-2.449-6.593 9.237 9.237 0 012.869-6.42 9.224 9.224 0 016.542-2.58c1.608 0 3.203.395 4.538 1.198l.198.135v3.457l-.593-.53c-1.2-1-2.671-1.593-4.267-1.593-1.533.061-2.943.53-4.068 1.456zm28.072 14.075h-3.067l-5.676-12.408c-.594 1.272-5.602 12.407-5.602 12.407h-3.13L100.616.136l8.743 18.666zm76.549 0h-3.067s-5.07-11.136-5.664-12.408c-.606 1.272-5.602 12.407-5.602 12.407h-3.128l8.73-18.666 8.731 18.666zm-61.684.061h-3.463l-5.07-7.259h-.334v7.26h-2.869V1h2.943c1.459 0 3.265 0 4.736.864a5.268 5.268 0 012.399 4.408 5.014 5.014 0 01-3.87 5c.531.728 5.528 7.53 5.528 7.592zm-8.731-15.259h-.198v5.53h.334c2.931 0 4.204-.863 4.204-2.802 0-1.864-1.335-2.728-4.34-2.728zM142.896 1v18.667S131.098 7.938 130.035 6.802v12h-2.869V0l12.861 13V1h2.869zm5.342 5.198h2.87v12.604h-2.87V6.198zM170.301 1l-8.002 18.926L154.298 1h3.141s4.267 10.457 4.86 11.864C162.905 11.457 167.172 1 167.172 1h3.129zm21.406 15.198h5.194v2.666h-8.063V1h2.869v15.198z"/>
    <path d="M100.615 16.667a2.128 2.128 0 01-2.127-2.136c0-1.173.952-2.136 2.127-2.136 1.187 0 2.139.963 2.139 2.136a2.13 2.13 0 01-2.139 2.136zm76.549 0a2.128 2.128 0 01-2.127-2.136c0-1.173.952-2.136 2.127-2.136 1.187 0 2.139.963 2.139 2.136a2.13 2.13 0 01-2.139 2.136z"/>
    <path fill-rule="evenodd" clip-rule="evenodd" d="M10.598 5.667a4.846 4.846 0 00-.68-.482 4.273 4.273 0 00-.754-.37 5.04 5.04 0 00-.804-.235 4.013 4.013 0 00-.829-.11c-.865 0-1.99.53-1.99 1.468 0 .926 1.26 1.457 2.064 1.729l1.2.333c2.461.728 4.402 2 4.402 4.864 0 1.803-.408 3.605-1.867 4.803-1.471 1.135-3.277 1.728-5.07 1.666-2.263.062-4.403-.666-6.27-2l2.003-3.728a6.955 6.955 0 004.13 1.864c1.064 0 2.264-.53 2.264-1.802s-1.793-1.729-2.795-2C2.672 10.803.73 10.062.73 6.605c0-3.605 2.609-6 6.133-6 1.942.062 3.871.53 5.603 1.457l-1.868 3.605zm16.139 2.271V1.074h4.674v17.864h-4.674v-7.333H20.07v7.333h-4.675V1.074h4.675v6.864h6.666zm26.538 1.729c0 5.802-4.13 9.876-9.868 9.876s-9.869-4.074-9.869-9.876c0-5.395 4.737-9.198 9.869-9.198s9.868 3.803 9.868 9.198zm-14.938.074v.53c.197 2.803 2.535 4.939 5.33 4.803 2.807-.197 4.934-2.53 4.81-5.333 0-2.47-2.275-4.741-5.07-4.741-2.807 0-5.07 2.21-5.07 4.74zM60.076 5v3h7.395v3.938h-7.395V15h7.667v3.938H55.402V1.074h12.28V5h-7.605z"/>
    <path d="M149.624 4.53a2.266 2.266 0 010-4.53 2.265 2.265 0 110 4.53z"/>
    <path fill-rule="evenodd" clip-rule="evenodd" d="M194.242 3.53c-.878 0-1.471-.666-1.41-1.394 0-.803.606-1.408 1.41-1.408.792 0 1.398.605 1.398 1.408 0 .802-.606 1.395-1.398 1.395zm1.138-1.332c0-.63-.507-1.136-1.138-1.136-.63 0-1.137.506-1.137 1.136 0 .63.507 1.135 1.137 1.135.631 0 1.138-.506 1.138-1.135zm-1.472.666h-.272V1.272h.606c.334 0 .532.123.532.456v.075c0 .197-.198.395-.408.395l.47.74h-.26l-.408-.666h-.26v.592zm.26-.876c.198 0 .408 0 .408-.198 0-.197-.136-.26-.334-.26h-.334v.532l.26-.074z"/>
  </g>
  <defs>
    <clipPath id="ilVwyheNOZa">
      <path fill="#fff" d="M0 0h197v20H0z"/>
    </clipPath>
  </defs>
</svg>
